<?xml version="1.0" encoding="UTF-8" standalone="no"?>
<svg
   version="1.1"
   width="1536"
   height="512"
   x="0"
   y="0"
   viewBox="0 0 1536 512"
   xml:space="preserve"
   class=""
   id="svg26"
   sodipodi:docname="logo_light.svg"
   inkscape:version="1.3.2 (091e20e, 2023-11-25)"
   xmlns:inkscape="http://www.inkscape.org/namespaces/inkscape"
   xmlns:sodipodi="http://sodipodi.sourceforge.net/DTD/sodipodi-0.dtd"
   xmlns="http://www.w3.org/2000/svg"
   xmlns:svg="http://www.w3.org/2000/svg"><sodipodi:namedview
     id="namedview26"
     pagecolor="#ffffff"
     bordercolor="#000000"
     borderopacity="0.25"
     inkscape:showpageshadow="2"
     inkscape:pageopacity="0.0"
     inkscape:pagecheckerboard="0"
     inkscape:deskcolor="#d1d1d1"
     showgrid="false"
     inkscape:zoom="0.50590272"
     inkscape:cx="836.12914"
     inkscape:cy="87.961576"
     inkscape:window-width="1512"
     inkscape:window-height="916"
     inkscape:window-x="0"
     inkscape:window-y="38"
     inkscape:window-maximized="0"
     inkscape:current-layer="text1" /><defs
     id="defs26"><linearGradient
       id="swatch29"
       inkscape:swatch="solid"><stop
         style="stop-color:#ff5d5d;stop-opacity:1;"
         offset="0"
         id="stop29" /></linearGradient><linearGradient
       id="swatch28"
       inkscape:swatch="solid"><stop
         style="stop-color:#000000;stop-opacity:1;"
         offset="0"
         id="stop28" /></linearGradient><linearGradient
       id="swatch27"
       inkscape:swatch="solid"><stop
         style="stop-color:#7ad7ee;stop-opacity:1;"
         offset="0"
         id="stop27" /></linearGradient></defs><g
     id="g26"><g
       id="g4"
       transform="matrix(0.82599762,0,0,0.82599762,129.19973,44.544609)"><g
         id="g5"
         transform="translate(-67.897103)"><g
           id="g1"
           transform="matrix(0.62868947,0,0,0.62868947,40.932238,95.053712)"><path
             fill="#000000"
             d="m 135.64,239.93 a 4.15,4.15 0 0 1 -4,-3 c -20,-68.75 -2.43,-134.24 3.45,-152.67 a 12.43,12.43 0 0 1 9.75,-8.48 l 11.55,-2 A 12.49,12.49 0 0 1 171,85 c 0.79,9.15 2.94,11.5 3.47,11.63 3.83,0.92 8.15,-1.92 11.09,-4.47 a 11.63,11.63 0 0 1 17.44,2.6 l 5.7,9 a 11.67,11.67 0 0 1 -2.75,15.46 c -7.88,6 -22.3,18.48 -30.41,35.15 -18.08,37.16 2.09,60 2.29,60.18 a 4.15,4.15 0 0 1 -1.3,6.54 l -39.12,18.44 a 4.16,4.16 0 0 1 -1.77,0.4 z m 22.92,-158 a 4.31,4.31 0 0 0 -0.74,0.06 l -11.55,2 a 4.16,4.16 0 0 0 -3.27,2.8 c -5.56,17.45 -22,78.38 -4.69,143.14 l 30.12,-14.2 c -5.91,-9.2 -16.29,-32.28 -0.36,-65 8.87,-18.22 24.39,-31.71 32.86,-38.13 a 3.32,3.32 0 0 0 0.76,-4.41 l -5.7,-9 a 3.28,3.28 0 0 0 -2.31,-1.51 3.33,3.33 0 0 0 -2.7,0.79 c -6.33,5.47 -12.71,7.63 -18.45,6.25 -5.74,-1.38 -8.81,-7.55 -9.8,-19 a 4.19,4.19 0 0 0 -1.63,-3 4.12,4.12 0 0 0 -2.54,-0.82 z"
             opacity="1"
             data-original="#220dba"
             class=""
             id="path1"
             style="fill:#343536;fill-opacity:1" /><path
             fill="#000000"
             d="m 357.47,512 c -65.61,0 -160.33,-26.9 -212.71,-86.93 -33.34,-38.21 -42.41,-76.61 -44.14,-102.1 -2,-29.82 4.89,-58.42 18.51,-76.52 16,-21.24 43.07,-30.06 51.91,-32.46 1.57,-9.28 8.6,-37.19 37,-44.18 20.64,-5.09 33.53,3.72 39.16,9.09 6.27,-5.86 21.13,-16.87 42.2,-14.39 a 50.44,50.44 0 0 1 37.41,23.71 c 15.18,-2.17 29.47,2 42.54,12.39 42.83,34.09 65,131.1 67.45,206.8 1.71,52.64 -3.25,79.63 -16.59,90.25 -11.85,9.4 -34.62,14.34 -62.74,14.34 z M 219.91,176.61 a 41.4,41.4 0 0 0 -9.93,1.26 c -27.77,6.85 -31.07,39.52 -31.1,39.84 a 4.15,4.15 0 0 1 -3.25,3.68 c -0.32,0.07 -32.87,7.45 -49.89,30.06 -22.68,30.15 -30.34,104.44 25.26,168.17 32.13,36.82 85.7,65.11 147,77.62 50.46,10.3 99.68,7.75 117,-6.06 14,-11.12 14.54,-50.46 13.47,-83.49 -1.26,-38.75 -7.77,-80.92 -17.86,-115.7 -11.82,-40.75 -27.89,-70.1 -46.46,-84.88 -11.94,-9.5 -25,-12.94 -38.78,-10.23 a 4.15,4.15 0 0 1 -4.56,-2.31 41.88,41.88 0 0 0 -32.42,-21.8 c -23.38,-2.75 -38,14.67 -38.12,14.85 a 4.15,4.15 0 0 1 -6.59,-0.24 c -0.37,-0.52 -8.02,-10.77 -23.77,-10.77 z"
             opacity="1"
             data-original="#220dba"
             class=""
             id="path3"
             style="fill:#343536;fill-opacity:1" /><path
             fill="#000000"
             d="m 323.38583,186.07835 c -5.08911,-0.0617 -8.27697,-4.67892 -3.24843,-5.46419 9.31,-1.36 36.08478,-13.66269 40.81478,-23.17269 2,-4 3.90782,-8.34147 2.07782,-11.69147 -4.81,-8.8 -22.09,-16.11 -77.09,-0.91 -28.68,7.93 -40.28209,31.58753 -40.61209,32.26753 -2.16686,4.82188 -9.00903,2.78789 -7.29072,-2.21144 0.33,-0.85 12.69281,-28.95609 45.65281,-38.10609 49,-13.55 77.36,-11.94 86.58,4.92 3.14,5.75 1.30218,12.90147 -1.92782,19.38147 -6.16,12.35 -31.49842,23.58394 -43.07842,25.27394 -0.17435,0.0446 -1.69931,-0.30906 -1.87793,-0.28706 z"
             opacity="1"
             data-original="#220dba"
             class=""
             id="path7"
             sodipodi:nodetypes="cccccccccccc"
             style="fill:#343536;fill-opacity:1" /><path
             fill="#000000"
             d="m 382.86713,217.70776 c -5.20507,-0.0101 -11.79062,-6.3276 -6.62316,-6.95225 L 427.8,203.74 c 4.69683,-0.59454 8.0765,-4.80586 7.64,-9.52 v -0.28 c -0.48439,-4.79136 -4.74559,-8.29323 -9.54,-7.84 l -70.53079,9.17977 c -5.45937,0.4827 -18.06887,-6.7783 -12.61973,-7.36532 L 425.12,177.85 c 9.35938,-0.92891 17.69438,5.91833 18.6,15.28 v 0.28 c 0.86582,9.20989 -5.74103,17.44188 -14.92,18.59 l -24,2.9 c -0.16961,0.0142 -21.76283,2.81526 -21.93287,2.80776 z"
             opacity="1"
             data-original="#220dba"
             class=""
             id="path9"
             sodipodi:nodetypes="cccccccccccccc"
             style="fill:#343536;fill-opacity:1" /><path
             fill="#000000"
             d="m 433.31,254.56 c -0.46,0 -0.92333,-0.02 -1.39,-0.06 l -28.9841,-3.14367 c -5.67329,-0.30884 -8.57741,-9.14529 -2.9284,-8.53685 L 432.59,246.23 c 4.74235,0.28254 8.84006,-3.27894 9.22108,-8.0144 0.38101,-4.73545 -3.09456,-8.90628 -7.82108,-9.3856 l -46.77882,-3.83904 c -5.67328,-0.30885 -7.93664,-8.39882 -2.28763,-7.79038 L 434.66,220.56 c 9.38885,0.37003 16.70002,8.28116 16.32999,17.67 -0.37003,9.38884 -8.28114,16.70003 -17.66999,16.33 z"
             opacity="1"
             data-original="#220dba"
             class=""
             id="path11"
             sodipodi:nodetypes="sccccsccccscs"
             style="fill:#343536;fill-opacity:1" /><path
             fill="#000000"
             d="m 100.06,237.83 c -0.231253,-0.001 -0.462027,-0.0212 -0.69,-0.06 L 82.7,235 c -8.939009,-1.52931 -15.18727,-9.69172 -14.33,-18.72 l 0.07,-0.73 c 0.903389,-9.58833 9.47499,-16.5851 19.05,-15.55 l 39.61911,5.5444 c 5.36355,0.70195 4.10841,7.92523 -1.28145,7.46711 L 86.6,208.25 c -4.960618,-0.52384 -9.401049,3.08682 -9.9,8.05 l -0.07,0.73 c -0.449257,4.69424 2.801072,8.9393 7.45,9.73 l 44.13756,10.33219 c 4.99433,0.85815 -3.31207,5.7688 -8.37952,5.79661 z"
             opacity="1"
             data-original="#220dba"
             class=""
             id="path13"
             sodipodi:nodetypes="ccccccccccccccc"
             style="fill:#343536;fill-opacity:1" /><path
             fill="#000000"
             d="M 78.94,277.93 C 69.691119,277.88894 62.11444,270.57261 61.750126,261.33082 61.385812,252.08903 68.363051,244.19899 77.58,243.43 l 47.95364,-3.80006 c 5.38088,-0.29293 0.74334,8.67153 -4.61453,9.24861 L 78.25,251.7 c -7.943185,0.68138 -11.143871,10.59095 -5.1,15.79 1.809045,1.55153 4.165301,2.31173 6.54,2.11 l 28.75628,-1.50572 c 5.64901,-0.60844 4.97322,7.56971 -0.70006,7.87855 L 80.36,277.87 c -0.473333,0.04 -0.946667,0.06 -1.42,0.06 z"
             opacity="1"
             data-original="#220dba"
             class=""
             id="path15"
             sodipodi:nodetypes="cscccccccccc"
             style="fill:#343536;fill-opacity:1" /><path
             fill="#000000"
             d="m 316.57287,131.97292 c -0.25827,3.9e-4 -1.35729,-1.62138 -1.61126,-1.66838 -2.24932,-0.4244 -2.13188,-6.96445 -1.71161,-9.21454 0.06,-0.33 3.24,-18.43 -4.31,-36.35 -6.39,-15.17 -15.15,-24.7 -26.76,-29.15 -1.77397,-0.682505 -2.85752,-2.482934 -2.63,-4.37 l 4.18,-34.65 c 0.48778,-4.015603 -2.37399,-7.6655876 -6.39,-8.15 h -0.18 c -3.9484,-0.4775248 -7.56194,2.268056 -8.16,6.2 l -3.2,23.31 c -0.94437,6.792469 -10.63499,7.130233 -12.05,0.42 l -4.64,-22.08 c -0.79991,-3.858553 -4.51779,-6.3858294 -8.4,-5.71 l -0.58,0.1 c -3.93207,0.683666 -6.5973,4.383885 -6,8.33 1.67,10.69 3,19.16 3.87,25.17 1.0481,7.122441 -7.89927,11.153751 -12.54,5.65 l -15,-17.75 c -6.34474,-6.701579 -16.71661,2.071764 -11.16,9.44 l 20.19,23.93 c 1.45696,1.732496 1.25675,4.312964 -0.45,5.8 -4.14287,3.49856 -14.77156,16.787244 -18.16432,21.017193 -3.19333,4.519997 -9.36312,0.584288 -6.16981,-3.93571 2.90981,-3.717594 12.3556,-17.431634 15.85411,-20.601483 L 193,46.85 c -5.64682,-6.586804 -4.84379,-16.513312 1.78838,-22.106774 6.63217,-5.593463 16.55187,-4.710339 22.09162,1.966774 l 12.32,14.65 c -0.84,-5.56 -1.94,-12.63 -3.26,-21.1 -1.27347,-8.420176 4.41085,-16.3160406 12.8,-17.78 l 0.58,-0.1 c 8.28639,-1.44865373 16.22378,3.9507241 17.92,12.19 l 2.06,9.81 1.5,-10.88 c 1.19126,-8.4234939 8.87852,-14.36304555 17.33,-13.39 h 0.18 c 8.59562,1.0060116 14.73488,8.8090152 13.69,17.4 l -3.8,31.55 c 12.33,5.69 21.65,16.33 28.43,32.4 8.59,20.37 5,40.27 4.82,41.11 -0.35156,1.99597 -2.8505,9.41899 -4.87713,9.40292 z m -55.6869,18.60764 -3.82696,0.80166 c -2.27415,-0.25635 -3.43054,-13.04754 -3.17901,-15.32222 1.59,-14.32 11.31,-22.7 19.76,-22.44 5.17,0.13 11.1695,10.79459 11.7595,20.54459 0.22211,2.33745 -1.21687,3.83233 -3.56057,3.97386 -2.34371,0.14153 -4.41815,-8.18126 -4.47893,-10.52845 -0.15,-2.56 -1,-5.62 -3.93,-5.7 -4,-0.12 -10.2,5.08 -11.31,15.06 -0.24352,2.09134 0.87144,13.60947 -1.23403,13.61056 z"
             opacity="1"
             data-original="#220dba"
             class=""
             id="path17"
             sodipodi:nodetypes="ccccccccccccccccccccccccccsccccccccccccccccccccscccc"
             style="fill:#343536;fill-opacity:1" /><g
             fill="#220dba"
             id="g21"
             style="fill:#220dba;fill-opacity:1"><path
               d="m 209,369.44 a 4.15,4.15 0 0 1 -3.86,-2.63 c -31.83,-80.9 9.5,-154.18 38.94,-184.72 a 4.1586536,4.1586536 0 1 1 6,5.76 C 222,217 182.56,286.78 212.85,363.77 a 4.15,4.15 0 0 1 -3.86,5.67 z"
               fill="#000000"
               opacity="1"
               data-original="#220dba"
               class=""
               id="path19"
               style="fill:#343536;fill-opacity:1" /><path
               d="m 274.1,469.84 c -13.13,0 -32.59,-3.93 -52.73,-12.62 -25.61,-11.05 -71.67,-38.6 -92.43,-98.92 -13,-37.9 -10.66209,-74.00008 -5,-97.29 5.97241,-22.03423 15.36313,-37.04209 10.24981,-10.21693 C 129.43082,273.22273 124.34,319.49 136.77,355.6 c 19.72,57.3 63.52,83.49 87.88,94 29.42,12.7 53.11,13.23 58.7,10.71 10,-4.5 7.53,-14.08 -5.58,-58.59 -3.51,-11.93 -7.49,-25.44 -12.05,-41.87 -20.33,-73.2 -1.87,-128.94 56.42,-170.42 4.54303,-3.43231 9.54176,3.59294 4.81,6.76 -55.1,39.21 -72.52,92 -53.24,161.44 4.54,16.36 8.51,29.85 12,41.74 13.4,45.53 17.92,60.86 1,68.49 -2.79,1.3 -7.15,1.98 -12.61,1.98 z"
               fill="#000000"
               opacity="1"
               data-original="#220dba"
               class=""
               id="path20"
               sodipodi:nodetypes="sccccccccccccccs"
               style="fill:#343536;fill-opacity:1" /></g><path
             fill="#000000"
             d="m 362.43,456.26 c -3.0407,-0.008 -6.06701,-0.41781 -9,-1.22 -18.54,-5 -40.59305,-23.7968 -58.32305,-59.1468 -30.46,-60.57 -32.39286,-79.94066 -32.28286,-80.83066 0.61333,-5.5 4.37161,-7.27503 3.75828,-1.77503 0,0.43 7.38884,21.14542 36.16884,78.37542 16.43,32.67 36.90879,51.08707 52.84879,55.36707 7.47,2 14.84,0.68 21.9,-3.94 23.38,-15.3 -0.68,-89.72 -10.95,-121.49 -10.68,-33 5.18,-49.52 16.76,-61.55 1,-1.07 10.60637,-9.23251 11.60637,-10.25251 3.77478,-3.72694 7.2172,2.06328 3.77002,6.09515 -1,1.05 -8.30639,8.79736 -9.37639,9.90736 -11.25,11.68 -24,24.93 -14.85,53.25 18.84,58.28 32.8,114.49 7.6,131 -5.78569,3.96476 -12.61669,6.12577 -19.63,6.21 z"
             opacity="1"
             data-original="#220dba"
             class=""
             id="path23"
             sodipodi:nodetypes="cccccccccccccccc"
             style="fill:#343536;fill-opacity:1" /><path
             fill="#000000"
             d="m 284.13,303.16 c -4.07529,-7.5e-4 -5.70843,-5.26155 -2.35,-7.57 2.64761,-1.78307 5.46861,-3.29408 8.42,-4.51 5.0622,-2.14512 10.50207,-3.2569 16,-3.27 h 0.07 c 5.53333,0 5.53333,8.3 0,8.3 h -0.06 c -4.40606,0.012 -8.76509,0.90628 -12.82,2.63 -2.43201,1.00056 -4.75707,2.2435 -6.94,3.71 -0.68481,0.4636 -1.49302,0.71095 -2.32,0.71 z m 36.8,-3.86 c -2.2611,4.2e-4 -4.10641,-1.80932 -4.15,-4.07 -0.64,-35.49 -23.35,-48.32 -24.31,-48.84 -4.62255,-2.69745 -0.85186,-9.68376 3.94,-7.3 1.14,0.61 27.94,15.46 28.67,56 0.0334,2.28823 -1.79184,4.17164 -4.08,4.21 z m -29.06866,-72.14016 c -3.3361,-0.008 -3.03755,0.47132 -1.14841,-2.27838 7.7911,-11.31035 19.36732,-22.0741 31.06772,-29.26618 4.74666,-2.99911 8.40839,-2.56393 3.57614,0.29525 -10.71004,6.58199 -22.94237,17.13809 -30.07545,27.48927 -0.77282,1.12794 -2.0527,3.7616 -3.42,3.76004 z"
             opacity="1"
             data-original="#220dba"
             class=""
             id="path24"
             sodipodi:nodetypes="ccccssccccscccccscccccc"
             style="fill:#343536;fill-opacity:1" /><path
             fill="#000000"
             d="m 238.72,295.69 c -18.74,0 -24.44,-8.56 -25.09,-9.66 l 7.13,-4.24 -0.06,-0.1 c 0.05,0.08 5.42,7.6 25.46,5.25 a 4.1502289,4.1502289 0 1 1 1,8.24 72.12,72.12 0 0 1 -8.44,0.51 z"
             opacity="1"
             data-original="#220dba"
             class=""
             id="path26"
             style="fill:#343536;fill-opacity:1" /><path
             fill="#000000"
             d="m 197.09786,231.58011 c -18.52267,-1.63002 -24.65734,-9.97313 -25.30734,-11.07313 l 7.23867,-2.60953 -1.79869,-1.29535 c 0.05,0.08 11.17942,13.25075 38.28286,8.61872 5.49333,-0.66667 1.60325,5.72596 -3.89008,6.39263 -2.80094,0.33491 -11.70453,0.17472 -14.52542,-0.0333 z"
             opacity="1"
             data-original="#220dba"
             class=""
             id="path26-1"
             sodipodi:nodetypes="cccccccc"
             style="fill:#343536;fill-opacity:1" /><path
             style="mix-blend-mode:normal;fill:#7ad7ee;fill-opacity:1;fill-rule:nonzero;stroke:#7ad7ee;stroke-width:1.92;stroke-dasharray:none;stroke-opacity:1"
             d="m 138.08643,228.21723 c -0.9361,-2.56542 -3.71081,-16.2974 -4.79044,-23.70779 -1.83122,-12.56913 -2.40409,-21.08397 -2.40128,-35.69126 0.004,-19.66904 1.59357,-35.80133 5.40203,-54.81697 2.07911,-10.38096 5.98896,-25.477185 7.21004,-27.838491 0.7535,-1.457113 1.7585,-1.825518 7.93802,-2.909855 7.48424,-1.313281 8.17808,-1.335463 9.52953,-0.304658 1.21845,0.929356 1.42309,1.569538 2.11456,6.615031 1.08639,7.927095 3.5728,12.718033 7.61601,14.674873 2.16101,1.04589 7.07544,1.18481 10.07388,0.28476 2.60856,-0.78302 5.88128,-2.48339 8.23907,-4.28068 3.4423,-2.623984 4.44914,-2.921644 5.93339,-1.754133 0.89216,0.701776 6.73531,9.841143 7.02193,10.983113 0.33151,1.32086 -0.41775,2.43002 -2.98458,4.41821 -3.95831,3.066 -9.11502,7.72748 -13.02816,11.777 -11.08921,11.4757 -18.04587,22.64071 -22.57055,36.22438 -2.76341,8.29606 -3.84789,14.78138 -3.82781,22.8906 0.0245,9.90996 1.99865,18.27512 6.31206,26.74696 0.91121,1.78969 1.60755,3.28059 1.54742,3.31312 -0.0601,0.0325 -1.668,0.58712 -3.57304,1.23245 -7.36625,2.49528 -16.64211,6.86051 -22.79299,10.72641 -1.82041,1.14415 -2.8835,1.65149 -2.96909,1.41693 z"
             id="path27" /><path
             style="mix-blend-mode:normal;fill:#ff5d5d;fill-opacity:1;fill-rule:nonzero;stroke:#ff5d5d;stroke-width:1.88976;stroke-dasharray:none;stroke-opacity:1"
             d="m 172.18611,204.61747 c -1.03024,-2.46571 -2.56343,-7.61654 -3.17215,-10.65702 -0.84544,-4.22288 -0.84866,-14.67467 -0.006,-19.26549 2.29636,-12.50968 7.92402,-24.59219 16.52777,-35.48491 3.42809,-4.3401 12.91893,-13.7304 18.03868,-17.84757 4.32535,-3.47834 5.49385,-4.85216 6.40192,-7.52683 0.68928,-2.03023 0.70108,-5.82826 0.0241,-7.74712 -0.52919,-1.4999 -5.93666,-10.34124 -7.76555,-12.696865 l -1.00282,-1.291638 2.83355,-3.485178 c 5.36595,-6.599965 10.03606,-12.022732 13.03741,-15.13856 3.35952,-3.487669 3.94438,-4.70213 3.23224,-6.711692 -0.25004,-0.705614 -4.80274,-6.38681 -10.8378,-13.52425 -5.72365,-6.769136 -10.67131,-12.880754 -10.99479,-13.581372 -1.84266,-3.9909 1.02972,-8.839274 5.77163,-9.742127 0.60047,-0.11433 1.8387,0.01526 2.76003,0.288871 2.04707,0.607912 2.90202,1.487349 12.19164,12.540808 5.68672,6.766468 7.10013,8.254487 8.50744,8.956529 4.79285,2.390932 10.39257,-1.008192 10.41701,-6.32331 0.004,-0.844472 -0.89893,-7.403368 -2.00626,-14.575322 -1.37367,-8.896909 -1.93275,-13.395738 -1.75971,-14.159845 1.22571,-5.412313 7.45161,-7.7759922 11.84508,-4.497016 1.99769,1.490933 2.34466,2.530979 4.88293,14.636723 1.33783,6.380461 2.58153,12.072528 2.7638,12.649038 0.39494,1.249211 2.15763,3.032179 3.49686,3.537089 2.59716,0.979165 6.08911,-0.06633 7.533,-2.255396 0.77345,-1.172624 1.03812,-2.598081 2.5866,-13.930731 1.00033,-7.32101 1.96192,-13.166992 2.28899,-13.915948 1.50904,-3.4555168 5.83036,-5.2353799 9.24643,-3.8084089 2.5768,1.0763909 4.48739,3.7903529 4.50246,6.3956549 0.004,0.712656 -0.91375,8.906776 -2.03971,18.209155 -1.12597,9.302378 -2.04721,17.440345 -2.04721,18.084369 0,2.229254 0.7845,3.095642 4.26632,4.711669 7.90491,3.668915 13.49828,8.576032 18.67718,16.385658 8.4138,12.687767 12.52206,28.763445 11.11756,43.503145 -0.44628,4.68352 -0.56899,10.15799 -0.27433,12.23825 l 0.16278,1.14921 -7.16522,1.4507 c -5.75842,1.16587 -17.79098,4.00132 -20.30366,4.78452 -0.41343,0.12886 -0.49178,-0.12284 -0.40047,-1.28651 0.25194,-3.21071 -1.77049,-10.31256 -4.14004,-14.53796 -1.29968,-2.3176 -4.34841,-5.62954 -5.69596,-6.18771 -0.66225,-0.27432 -2.00259,-0.37097 -3.74536,-0.27008 -5.90505,0.34184 -11.62254,4.75044 -14.97678,11.54817 -2.60496,5.27924 -3.24624,8.2486 -3.01656,13.96772 0.1855,4.61873 0.95462,9.3023 1.79769,10.94705 0.43701,0.85257 0.34285,0.98329 -3.31817,4.60622 -5.23672,5.18224 -9.29657,10.38677 -12.66267,16.23294 l -0.91304,1.58576 -2.71415,-1.17344 c -4.79014,-2.07097 -8.73345,-2.90173 -14.69931,-3.09677 -4.35653,-0.14243 -6.01567,-0.0487 -9.41388,0.53169 -10.6736,1.82303 -18.84295,6.07787 -26.06379,13.5748 -5.26098,5.46214 -9.17785,11.95897 -11.93669,19.79912 l -1.29999,3.69435 z"
             id="path28" /><path
             style="fill:#ff5d5d;fill-opacity:1;fill-rule:nonzero;stroke:#ff5d5d;stroke-width:1.88976;stroke-linejoin:miter;stroke-dasharray:none;stroke-opacity:1;paint-order:normal"
             d="m 105.10237,231.62047 c -25.809484,-6.05011 -23.757914,-5.45342 -25.787215,-7.50012 -1.977138,-1.9941 -2.70371,-3.92816 -2.573333,-6.84995 0.127533,-2.85807 0.789098,-4.43675 2.636038,-6.29033 1.814229,-1.82075 3.760375,-2.66848 6.126046,-2.66848 0.579609,0 9.750347,1.05403 20.379424,2.3423 10.62907,1.28826 19.49997,2.3605 19.71311,2.38275 0.45139,0.0471 0.42798,-0.0204 0.91939,2.6517 0.70655,3.84194 1.83068,8.92985 3.01343,13.63908 0.97924,3.89897 1.19539,4.92352 1.06532,5.04964 -0.51392,0.49825 -2.89913,2.52599 -2.9614,2.51758 -0.0408,-0.006 -10.17965,-2.37889 -22.53081,-5.27417 z"
             id="path29" /><path
             style="fill:#ff5d5d;fill-opacity:1;fill-rule:nonzero;stroke:#ff5d5d;stroke-width:1.88976;stroke-linejoin:miter;stroke-dasharray:none;stroke-opacity:1;paint-order:normal"
             d="m 77.488518,269.4555 c -2.925315,-0.48469 -5.785095,-2.85154 -6.832836,-5.65508 -1.570968,-4.20359 0.250715,-8.93679 4.247958,-11.03728 1.706646,-0.89682 1.597105,-0.88481 17.860626,-1.95755 8.222134,-0.54233 17.035074,-1.12527 19.584294,-1.29542 2.54922,-0.17015 4.64587,-0.29879 4.65922,-0.28587 0.0134,0.0129 -0.384,0.65376 -0.883,1.42408 -2.75956,4.25994 -5.49343,9.70366 -7.70332,15.33895 -0.77396,1.97361 -0.85535,2.12164 -1.16667,2.12164 -0.18407,0 -6.49117,0.32314 -14.015788,0.71809 -12.905524,0.67738 -14.96033,0.75937 -15.750484,0.62844 z"
             id="path30" /><path
             style="fill:#ff5d5d;fill-opacity:1;fill-rule:nonzero;stroke:#ff5d5d;stroke-width:1.88976;stroke-linejoin:miter;stroke-dasharray:none;stroke-opacity:1;paint-order:normal"
             d="m 377.1572,207.67029 c -4.94995,-5.11209 -9.94204,-9.14999 -15.10719,-12.21961 -0.67502,-0.40116 -1.20525,-0.75144 -1.17829,-0.7784 0.027,-0.027 4.16621,-0.58475 9.19832,-1.23953 5.03212,-0.65477 19.7972,-2.57856 32.81129,-4.27508 25.18462,-3.28306 24.27191,-3.1873 26.04701,-2.73305 2.26739,0.58022 4.46247,2.34704 5.52777,4.44932 0.69092,1.36345 0.87402,2.20303 0.87408,4.0079 6e-5,1.5313 -0.0351,1.80175 -0.36425,2.80615 -0.91889,2.80361 -3.38067,5.10714 -6.17006,5.77341 -0.73006,0.17438 -48.58612,6.74216 -49.0466,6.73116 -0.0843,-0.002 -1.25078,-1.13703 -2.59208,-2.52227 z"
             id="path31" /><path
             style="fill:#ff5d5d;fill-opacity:1;fill-rule:nonzero;stroke:#ff5d5d;stroke-width:1.88976;stroke-linejoin:miter;stroke-dasharray:none;stroke-opacity:1;paint-order:normal"
             d="m 416.81491,244.52905 c -8.66456,-0.92342 -15.79154,-1.68269 -15.83775,-1.68728 -0.0462,-0.005 -0.75704,-1.32166 -1.57963,-2.92685 -2.31557,-4.51854 -5.31673,-9.79113 -7.66131,-13.45974 -0.35189,-0.55061 -0.62233,-1.01858 -0.60097,-1.03994 0.0437,-0.0437 40.92106,3.29119 42.70455,3.48396 2.24547,0.24271 3.77326,0.97331 5.38257,2.57398 1.71505,1.70584 2.50684,3.6156 2.49812,6.02533 -0.009,2.51677 -0.75822,4.30272 -2.5589,6.10069 -1.61243,1.61001 -3.40106,2.41909 -5.64232,2.55229 -0.68106,0.0405 -5.41796,-0.41961 -16.70436,-1.62244 z"
             id="path32" /><path
             style="fill:#fe8f8d;fill-opacity:1;fill-rule:nonzero;stroke:#fe8f8d;stroke-width:0.771;stroke-linejoin:miter;stroke-dasharray:none;stroke-opacity:1;paint-order:normal"
             d="m 343.71222,502.99848 c -0.72589,-0.0791 -3.94996,-0.32865 -7.1646,-0.5545 -39.78276,-2.79501 -84.93493,-15.49352 -120.47839,-33.88312 -37.48197,-19.39255 -65.14393,-44.13213 -83.70423,-74.86117 -12.46378,-20.63545 -19.85276,-41.95877 -22.67908,-65.44792 -0.80941,-6.72698 -0.93349,-23.04898 -0.22215,-29.22402 1.71958,-14.9274 4.95402,-26.56321 10.4053,-37.43275 2.60834,-5.20088 9.08523,-15.31335 7.922,-12.30001 -0.854,2.2123 -4.10864,11.9189 -4.90889,15.60664 -4.11876,18.98027 -4.67626,43.24317 -1.46507,63.76045 8.5056,54.34478 41.08637,99.26804 89.93857,124.00976 16.77556,8.49616 33.57981,13.95412 50.71782,16.47298 6.2866,0.92397 17.88065,0.9378 21.30525,0.0254 5.3423,-1.42329 10.15609,-4.77198 12.16456,-8.4622 1.55723,-2.86114 2.16482,-5.79767 2.16313,-10.45451 -0.003,-8.93658 -1.73476,-16.41712 -11.743,-50.73286 -10.49489,-35.98434 -16.15124,-56.62345 -16.96237,-61.75486 -0.13244,-0.83787 2.45564,6.76385 4.12665,10.84849 7.64532,18.6883 21.42308,47.66662 27.7928,58.45567 17.5712,29.76218 39.69876,47.99954 59.76049,49.25413 10.0242,0.62688 21.60965,-4.22759 27.355,-11.46215 8.22988,-10.36306 9.89451,-29.41891 5.01489,-57.40798 -2.5673,-14.7258 -8.06659,-35.76476 -15.42535,-59.01367 -5.17459,-16.34836 -6.0133,-20.21054 -6.00415,-27.6487 0.0111,-9.02306 3.10541,-17.37928 9.42956,-25.46471 2.41291,-3.0849 16.65621,-18.75451 16.919,-18.50201 0.4316,0.41469 5.20708,13.05319 7.37931,19.38926 10.62095,30.97986 18.27985,69.27933 21.491,107.46899 1.2452,14.80897 1.49102,21.53585 1.50891,41.29072 0.0125,13.79231 -0.13968,22.12677 -0.47161,25.83026 -1.87487,20.91908 -5.82353,33.65259 -12.21867,39.40238 -6.58015,5.91611 -18.64223,9.87302 -36.87785,12.09757 -3.69772,0.45109 -9.01144,0.65074 -19.41984,0.72964 -7.88106,0.0598 -14.9231,0.0439 -15.64899,-0.0352 z"
             id="path33"
             sodipodi:nodetypes="sssssssssssssscsssssssssssssssssss" /><path
             style="fill:#7ad7ee;fill-opacity:1;fill-rule:nonzero;stroke:#7ad7ee;stroke-width:0.52;stroke-linejoin:miter;stroke-dasharray:none;stroke-opacity:1;paint-order:normal"
             d="m 319.93128,179.1373 c -1.68035,-1.73 -5.35761,-4.78125 -7.5007,-6.22379 -6.00267,-4.04046 -12.49147,-6.70642 -19.56768,-8.03949 -3.61401,-0.68083 -11.81415,-0.9414 -15.46315,-0.49135 -9.98975,1.23207 -20.19673,5.76197 -28.08152,12.46269 l -2.21512,1.88247 -0.79856,-0.82391 -0.79856,-0.8239 1.12777,-1.97899 c 2.1186,-3.71766 5.74895,-8.4332 9.43811,-12.25938 8.13082,-8.43279 18.36353,-14.55479 29.72648,-17.78468 12.05276,-3.42597 24.77133,-6.19134 34.90666,-7.58967 7.18369,-0.99111 9.62984,-1.16203 16.42667,-1.1478 7.23415,0.0152 10.36007,0.36952 14.74547,1.6716 5.30814,1.57604 9.32566,4.5058 11.07125,8.07364 0.60718,1.24105 0.67171,1.61791 0.55777,3.25767 -0.23398,3.3675 -2.48562,8.43977 -4.96059,11.1747 -5.46005,6.03355 -19.74728,14.14117 -32.1939,18.26918 -5.40304,1.79195 -5.05953,1.7721 -6.4204,0.37101 z"
             id="path34" /><path
             style="fill:#ff5d5d;fill-opacity:1;fill-rule:nonzero;stroke:#ff5d5d;stroke-width:1.88976;stroke-linejoin:miter;stroke-dasharray:none;stroke-opacity:1;paint-order:normal"
             d="m 196.8715,225.33455 c -4.70422,-0.67129 -10.51173,-2.7062 -14.33323,-5.02227 -2.62322,-1.58984 -3.03304,-2.07285 -3.03304,-3.57467 0,-5.77823 6.13445,-20.42406 10.85327,-25.91185 5.70335,-6.63277 12.49478,-10.92108 20.23109,-12.77451 5.33831,-1.27893 13.63413,-1.28184 17.92252,-0.006 4.08632,1.21545 9.26952,3.90236 10.92292,5.66232 l 1.21895,1.29752 -4.68935,5.79142 c -7.82128,9.65936 -15.79345,21.69794 -20.31631,30.67914 l -1.90833,3.78943 -3.47761,0.36349 c -4.41316,0.46126 -8.76974,0.3657 -13.39088,-0.29373 z"
             id="path35" /><path
             style="fill:#7ad7ee;fill-opacity:1;fill-rule:nonzero;stroke:#7ad7ee;stroke-width:1.49239;stroke-linejoin:miter;stroke-dasharray:none;stroke-opacity:1;paint-order:normal"
             d="m 259.02918,459.65128 c -20.17396,-3.68444 -42.5975,-12.91977 -60.28866,-24.83039 -23.95141,-16.12535 -41.81724,-36.4556 -53.85333,-61.28185 -7.84228,-16.17589 -12.04194,-30.35531 -14.26793,-48.17311 -1.33894,-10.7175 -1.12802,-39.4329 0.37974,-51.69826 1.69213,-13.76531 4.40058,-29.27497 5.51955,-31.60726 0.72213,-1.50512 5.13365,-3.94678 18.88065,-10.44991 l 17.93835,-8.48588 3.35966,2.35527 c 6.0751,4.2589 11.69023,5.73814 23.27355,6.13113 l 10.43721,0.35411 -1.25114,2.41943 c -4.98823,9.64618 -11.78317,32.99853 -14.18772,48.75933 -1.65541,10.85047 -1.87544,34.89048 -0.41175,44.98607 2.30453,15.89509 9.28538,39.63674 12.09699,41.14146 2.22785,1.19231 5.28418,0.2226 6.29573,-1.99751 0.69417,-1.52355 0.40047,-3.19652 -1.55594,-8.8626 -5.74652,-16.64284 -8.03858,-29.03224 -8.60224,-46.49814 -0.99097,-30.70686 5.94431,-58.63225 21.80859,-87.81381 7.45094,-13.70564 19.35939,-29.8 28.60779,-38.66367 17.12702,-16.41452 44.92029,-17.07636 61.32423,-0.67238 2.55091,2.55091 4.13009,5.88954 4.13009,6.40344 0,0.51391 -0.59451,2.90927 -2.9403,4.74136 -49.02576,38.2896 -68.08637,89.75321 -52.70479,154.99177 1.09241,4.6333 6.25388,23.12247 11.46994,41.08704 16.90103,58.20866 17.61072,63.50397 9.05498,67.56394 -3.25608,1.54511 -16.31023,1.59861 -24.51325,0.10046 z M 248.75869,295.24874 c 1.96716,-0.75487 2.89206,-3.88945 1.83328,-6.21321 -0.49397,-1.08414 -1.2853,-2.00194 -1.75852,-2.03953 -0.47321,-0.0376 -4.78287,-0.12644 -9.57701,-0.19743 -8.08249,-0.11969 -9.08702,-0.31268 -13.8078,-2.65276 l -5.09116,-2.52368 -3.11324,1.73396 c -3.993,2.22394 -4.25058,3.20234 -1.51228,5.74428 2.89179,2.68443 5.57825,4.04618 10.70547,5.42655 4.21879,1.13581 19.91933,1.64353 22.32126,0.72182 z"
             id="path36"
             sodipodi:nodetypes="ssssssscsscssssssssssscsssssssssscssss" /><path
             style="fill:#ff5d5d;fill-opacity:1;fill-rule:nonzero;stroke:#ff5d5d;stroke-width:0.89461;stroke-linejoin:miter;stroke-dasharray:none;stroke-opacity:1;paint-order:normal"
             d="m 356.23201,446.89589 c -15.64233,-4.22701 -32.93834,-20.43698 -46.98438,-44.03417 -7.32075,-12.29878 -30.8991,-61.33177 -39.49581,-82.13456 l -2.83664,-6.86427 -0.26241,-6.91476 c -0.71647,-18.87977 3.59046,-38.4552 12.43548,-56.52058 9.15203,-18.69241 23.90378,-35.86316 43.4153,-50.53455 4.04203,-3.03935 4.23223,-3.12388 7.77609,-3.45597 22.86982,-2.14308 43.88394,13.90757 60.83229,46.46388 1.77574,3.41104 3.22862,6.40554 3.22862,6.65444 0,0.2489 -2.57008,2.67706 -5.7113,5.3959 -14.31149,12.38717 -22.18478,23.8633 -24.84769,36.21806 -1.0824,5.02191 -1.0956,14.66621 -0.0278,20.32659 0.9321,4.94113 0.62198,3.84182 5.20846,18.46252 11.30031,36.02287 16.39027,58.21183 17.87646,77.92987 1.20164,15.94284 -1.32701,27.28942 -7.35015,32.98166 -2.6692,2.52256 -7.21093,4.96619 -11.20632,6.02946 -3.19219,0.8495 -8.89967,0.84784 -12.05019,-0.004 z M 289.82628,300.88305 c 5.29892,-2.81007 8.17929,-3.69459 14.09525,-4.32844 3.87602,-0.41528 4.64442,-0.64637 5.56243,-1.67289 1.35417,-1.51424 1.42983,-4.37163 0.15723,-5.93813 -0.85027,-1.04665 -1.20337,-1.11346 -5.56242,-1.05242 -3.06247,0.0429 -5.94991,0.41007 -8.44171,1.07349 -4.97845,1.32548 -13.02113,5.26623 -14.61589,7.1615 -1.63834,1.94704 -1.67095,4.3333 -0.081,5.92329 1.79785,1.79786 3.78936,1.53645 8.88607,-1.1664 z m 34.23727,-2.71142 c 0.98958,-1.06778 1.16089,-1.71581 1.16089,-4.39136 0,-12.94367 -4.44129,-27.61644 -11.63422,-38.43615 -4.96831,-7.4734 -15.72903,-16.98822 -19.21273,-16.98822 -1.91711,0 -4.1845,2.26791 -4.1845,4.18545 0,2.25493 0.41545,2.84111 3.49148,4.92626 4.17607,2.83084 9.60667,8.46777 12.81151,13.29826 5.9431,8.95775 8.90147,18.55797 10.00382,32.46352 0.26104,3.29285 0.50743,4.17485 1.4216,5.08903 1.60749,1.60749 4.58222,1.5364 6.14215,-0.14679 z"
             id="path37" /></g><g
           id="text1"
           style="font-size:280px;fill:#ff5d5d;stroke:#ff5d5d;stroke-width:1.88976"
           aria-label="CineMA"
           transform="translate(-43.796236,9.6685035)"><path
             style="font-size:338.984px;fill:#343536;stroke:#343536;stroke-width:2.28785"
             d="m 609.61632,351.68468 q -9.10357,3.97247 -16.55195,7.44838 -7.28286,3.47591 -19.20027,7.28286 -10.09669,3.14487 -22.0141,5.29662 -11.75188,2.31728 -25.98656,2.31728 -26.81417,0 -48.82827,-7.44838 -21.84858,-7.6139 -38.06949,-23.66929 -15.88988,-15.72436 -24.82793,-39.89021 -8.93806,-24.33137 -8.93806,-56.44216 0,-30.4556 8.60702,-54.45593 8.60702,-24.00033 24.82793,-40.55229 15.72436,-16.05539 37.90397,-24.49689 22.34514,-8.44149 49.49035,-8.44149 19.86234,0 39.55916,4.80006 19.86235,4.80007 44.0282,16.88299 v 38.8971 h -2.48279 q -20.35891,-17.04852 -40.38677,-24.82794 -20.02786,-7.77941 -42.86956,-7.77941 -18.70371,0 -33.76598,6.12422 -14.89676,5.9587 -26.64865,18.70371 -11.42085,12.41396 -17.87611,31.44871 -6.28974,18.86923 -6.28974,43.69716 0,25.98656 6.95182,44.69027 7.11734,18.70371 18.20715,30.4556 11.58637,12.24844 26.97968,18.20714 15.55884,5.79319 32.77287,5.79319 23.66929,0 44.35924,-8.11046 20.68994,-8.11046 38.73157,-24.33137 h 2.31727 z M 686.91394,153.72332 H 651.8238 v -32.27631 h 35.09014 z m -1.98623,215.83747 H 653.81003 V 184.67547 h 31.11768 z m 216.1685,0 H 869.97854 V 264.29037 q 0,-12.74501 -1.48968,-23.83482 -1.48967,-11.25533 -5.46214,-17.54507 -4.13799,-6.95182 -11.91741,-10.26221 -7.77942,-3.47591 -20.19338,-3.47591 -12.745,0 -26.64865,6.28974 -13.90364,6.28975 -26.64864,16.0554 V 369.56079 H 746.50097 V 184.67547 h 31.11767 v 20.52442 q 14.56572,-12.08292 30.12455,-18.86922 15.55884,-6.78631 31.94527,-6.78631 29.95904,0 45.6834,18.04163 15.72435,18.04163 15.72435,51.97314 z M 1115.775,280.34576 H 979.55246 q 0,17.04851 5.13111,29.79352 5.1311,12.57948 14.06916,20.68994 8.60697,7.94494 20.35887,11.91741 11.9174,3.97247 26.1521,3.97247 18.8692,0 37.904,-7.44838 19.2003,-7.6139 27.3107,-14.89676 h 1.6552 v 33.9315 q -15.7243,6.62078 -32.1108,11.08981 -16.3864,4.46903 -34.428,4.46903 -46.01448,0 -71.83552,-24.82793 -25.82105,-24.99345 -25.82105,-70.84236 0,-45.35236 24.66241,-72.001 24.82793,-26.64865 65.21466,-26.64865 37.4075,0 57.6008,21.84858 20.3589,21.84858 20.3589,62.06983 z m -30.29,-23.83481 q -0.1656,-24.49689 -12.414,-37.90398 -12.0829,-13.40708 -36.9109,-13.40708 -24.9934,0 -39.89017,14.73124 -14.73124,14.73124 -16.71747,36.57982 z m 299.4248,113.04984 h -32.7729 V 157.19923 l -68.525,144.49855 h -19.5314 L 1196.052,157.19923 v 212.36156 h -30.6211 V 123.1022 h 44.6903 l 65.7112,137.2157 63.5595,-137.2157 h 45.5179 z m 260.5277,0 h -34.9246 l -24.1658,-68.69061 h -106.5946 l -24.1659,68.69061 h -33.2694 l 89.7116,-246.45859 h 43.6972 z m -69.1871,-96.82893 -43.2006,-120.99478 -43.3661,120.99478 z"
             id="text2"
             aria-label="CineMA" /></g></g></g></g></svg>
